<svg version="1.1" xmlns="http://www.w3.org/2000/svg" xmlns:xlink="http://www.w3.org/1999/xlink" width="1996" height="724"><defs/><g><g transform="translate(-14,-22) scale(1,1)"><rect fill="#C0C0C0" stroke="none" x="183" y="39" width="528" height="696" opacity="0.2"/></g><g transform="translate(-14,-22) scale(1,1)"><rect fill="#adadff" stroke="none" x="176" y="32" width="528" height="696"/></g><g transform="translate(-14,-22) scale(1,1)"><path fill="none" stroke="#0000ff" d="M 176 32 L 704 32 L 704 728 L 176 728 L 176 32 Z Z" stroke-miterlimit="10"/></g><g transform="translate(-14,-22) scale(1,1)"><g><path fill="none" stroke="none"/><text fill="#000000" stroke="none" font-family="Arial" font-size="13px" font-style="normal" font-weight="bold" text-decoration="none" x="396.2900390625" y="51.5">X5GON Mobile</text></g></g><g transform="translate(-14,-22) scale(1,1)"><rect fill="#C0C0C0" stroke="none" x="751" y="47" width="680" height="696" opacity="0.2"/></g><g transform="translate(-14,-22) scale(1,1)"><rect fill="#ffffff" stroke="none" x="744" y="40" width="680" height="696"/></g><g transform="translate(-14,-22) scale(1,1)"><path fill="none" stroke="#000000" d="M 744 40 L 1424 40 L 1424 736 L 744 736 L 744 40 Z Z" stroke-miterlimit="10"/></g><g transform="translate(-14,-22) scale(1,1)"><g><path fill="none" stroke="none"/><text fill="#000000" stroke="none" font-family="Arial" font-size="13px" font-style="normal" font-weight="bold" text-decoration="none" x="1034.142333984375" y="59.5">X5GON Backend</text></g></g><g transform="translate(-14,-22) scale(1,1)"><rect fill="#C0C0C0" stroke="none" x="1503" y="47" width="504" height="680" opacity="0.2"/></g><g transform="translate(-14,-22) scale(1,1)"><rect fill="#ffffff" stroke="none" x="1496" y="40" width="504" height="680"/></g><g transform="translate(-14,-22) scale(1,1)"><path fill="none" stroke="#000000" d="M 1496 40 L 2000 40 L 2000 720 L 1496 720 L 1496 40 Z Z" stroke-miterlimit="10"/></g><g transform="translate(-14,-22) scale(1,1)"><g><path fill="none" stroke="none"/><text fill="#000000" stroke="none" font-family="Arial" font-size="13px" font-style="normal" font-weight="bold" text-decoration="none" x="1677.19189453125" y="59.5">X5GON Platform Engine</text></g></g><g transform="translate(-14,-22) scale(1,1)"><path fill="#ffffff" stroke="none" d="M 64.66252414772727 361.68 C 64.66252414772727 356.886167936 68.54836647267273 353 73.341796875 353 C 78.13522727732727 353 82.02106960227273 356.886167936 82.02106960227273 361.68 C 82.02106960227273 366.473832064 78.13522727732727 370.36 73.341796875 370.36 C 68.54836647267273 370.36 64.66252414772727 366.473832064 64.66252414772727 361.68 Z"/></g><g transform="translate(-14,-22) scale(1,1)"><path fill="none" stroke="#000000" d="M 64.66252414772727 361.68 C 64.66252414772727 356.886167936 68.54836647267273 353 73.341796875 353 C 78.13522727732727 353 82.02106960227273 356.886167936 82.02106960227273 361.68 C 82.02106960227273 366.473832064 78.13522727732727 370.36 73.341796875 370.36 C 68.54836647267273 370.36 64.66252414772727 366.473832064 64.66252414772727 361.68 Z" stroke-miterlimit="10"/></g><g transform="translate(-14,-22) scale(1,1)"><path fill="none" stroke="#000000" d="M 73.341796875 370.36 L 73.341796875 387.64" stroke-miterlimit="10"/></g><g transform="translate(-14,-22) scale(1,1)"><path fill="none" stroke="#000000" d="M 64.15197869318182 376.84 L 82.53161505681818 376.84" stroke-miterlimit="10"/></g><g transform="translate(-14,-22) scale(1,1)"><path fill="none" stroke="#000000" d="M 73.341796875 387.64 L 60.578160511363635 405" stroke-miterlimit="10"/></g><g transform="translate(-14,-22) scale(1,1)"><path fill="none" stroke="#000000" d="M 73.341796875 387.64 L 86.10543323863637 405" stroke-miterlimit="10"/></g><g transform="translate(-14,-22) scale(1,1)"><g><path fill="none" stroke="none"/><text fill="#000000" stroke="none" font-family="Arial" font-size="13px" font-style="normal" font-weight="bold" text-decoration="none" x="38.66455078125" y="425.5">Mobile User</text></g></g><g transform="translate(-14,-22) scale(1,1)"><path fill="#C0C0C0" stroke="none" d="M 255 104 C 255 94.6111584 277.6096176 87 305.5 87 C 333.3903824 87 356 94.6111584 356 104 C 356 113.3888416 333.3903824 121 305.5 121 C 277.6096176 121 255 113.3888416 255 104 Z" opacity="0.2"/></g><g transform="translate(-14,-22) scale(1,1)"><path fill="#ffffff" stroke="none" d="M 248 97 C 248 87.6111584 270.6096176 80 298.5 80 C 326.3903824 80 349 87.6111584 349 97 C 349 106.3888416 326.3903824 114 298.5 114 C 270.6096176 114 248 106.3888416 248 97 Z"/></g><g transform="translate(-14,-22) scale(1,1)"><path fill="none" stroke="#000000" d="M 248 97 C 248 87.6111584 270.6096176 80 298.5 80 C 326.3903824 80 349 87.6111584 349 97 C 349 106.3888416 326.3903824 114 298.5 114 C 270.6096176 114 248 106.3888416 248 97 Z" stroke-miterlimit="10"/></g><g transform="translate(-14,-22) scale(1,1)"><g><path fill="none" stroke="none"/><text fill="#000000" stroke="none" font-family="Arial" font-size="13px" font-style="normal" font-weight="bold" text-decoration="none" x="278.263671875" y="104">Sign In</text></g></g><g transform="translate(-14,-22) scale(1,1)"><path fill="#C0C0C0" stroke="none" d="M 255 152 C 255 142.6111584 278.0573328 135 306.5 135 C 334.9426672 135 358 142.6111584 358 152 C 358 161.3888416 334.9426672 169 306.5 169 C 278.0573328 169 255 161.3888416 255 152 Z" opacity="0.2"/></g><g transform="translate(-14,-22) scale(1,1)"><path fill="#ffffff" stroke="none" d="M 248 145 C 248 135.6111584 271.0573328 128 299.5 128 C 327.9426672 128 351 135.6111584 351 145 C 351 154.3888416 327.9426672 162 299.5 162 C 271.0573328 162 248 154.3888416 248 145 Z"/></g><g transform="translate(-14,-22) scale(1,1)"><path fill="none" stroke="#000000" d="M 248 145 C 248 135.6111584 271.0573328 128 299.5 128 C 327.9426672 128 351 135.6111584 351 145 C 351 154.3888416 327.9426672 162 299.5 162 C 271.0573328 162 248 154.3888416 248 145 Z" stroke-miterlimit="10"/></g><g transform="translate(-14,-22) scale(1,1)"><g><path fill="none" stroke="none"/><text fill="#000000" stroke="none" font-family="Arial" font-size="13px" font-style="normal" font-weight="bold" text-decoration="none" x="276.37548828125" y="152">Sign Up</text></g></g><g transform="translate(-14,-22) scale(1,1)"><path fill="#C0C0C0" stroke="none" d="M 255 211 C 255 195.5360256 322.8288528 183 406.5 183 C 490.1711472 183 558 195.5360256 558 211 C 558 226.4639744 490.1711472 239 406.5 239 C 322.8288528 239 255 226.4639744 255 211 Z" opacity="0.2"/></g><g transform="translate(-14,-22) scale(1,1)"><path fill="#ffffff" stroke="none" d="M 248 204 C 248 188.5360256 315.8288528 176 399.5 176 C 483.1711472 176 551 188.5360256 551 204 C 551 219.4639744 483.1711472 232 399.5 232 C 315.8288528 232 248 219.4639744 248 204 Z"/></g><g transform="translate(-14,-22) scale(1,1)"><path fill="none" stroke="#000000" d="M 248 204 C 248 188.5360256 315.8288528 176 399.5 176 C 483.1711472 176 551 188.5360256 551 204 C 551 219.4639744 483.1711472 232 399.5 232 C 315.8288528 232 248 219.4639744 248 204 Z" stroke-miterlimit="10"/></g><g transform="translate(-14,-22) scale(1,1)"><g><path fill="none" stroke="none"/><text fill="#000000" stroke="none" font-family="Arial" font-size="13px" font-style="normal" font-weight="bold" text-decoration="none" x="302.7998046875" y="211">View Recommended Material List</text></g></g><g transform="translate(-14,-22) scale(1,1)"><path fill="#C0C0C0" stroke="none" d="M 255 275 C 255 259.5360256 323.0527104 247 407 247 C 490.9472896 247 559 259.5360256 559 275 C 559 290.4639744 490.9472896 303 407 303 C 323.0527104 303 255 290.4639744 255 275 Z" opacity="0.2"/></g><g transform="translate(-14,-22) scale(1,1)"><path fill="#ffffff" stroke="none" d="M 248 268 C 248 252.5360256 316.0527104 240 400 240 C 483.9472896 240 552 252.5360256 552 268 C 552 283.4639744 483.9472896 296 400 296 C 316.0527104 296 248 283.4639744 248 268 Z"/></g><g transform="translate(-14,-22) scale(1,1)"><path fill="none" stroke="#000000" d="M 248 268 C 248 252.5360256 316.0527104 240 400 240 C 483.9472896 240 552 252.5360256 552 268 C 552 283.4639744 483.9472896 296 400 296 C 316.0527104 296 248 283.4639744 248 268 Z" stroke-miterlimit="10"/></g><g transform="translate(-14,-22) scale(1,1)"><g><path fill="none" stroke="none"/><text fill="#000000" stroke="none" font-family="Arial" font-size="13px" font-style="normal" font-weight="bold" text-decoration="none" x="321.965087890625" y="275">View Trending Material List</text></g></g><g transform="translate(-14,-22) scale(1,1)"><path fill="#C0C0C0" stroke="none" d="M 255 339 C 255 323.5360256 323.0527104 311 407 311 C 490.9472896 311 559 323.5360256 559 339 C 559 354.4639744 490.9472896 367 407 367 C 323.0527104 367 255 354.4639744 255 339 Z" opacity="0.2"/></g><g transform="translate(-14,-22) scale(1,1)"><path fill="#ffffff" stroke="none" d="M 248 332 C 248 316.5360256 316.0527104 304 400 304 C 483.9472896 304 552 316.5360256 552 332 C 552 347.4639744 483.9472896 360 400 360 C 316.0527104 360 248 347.4639744 248 332 Z"/></g><g transform="translate(-14,-22) scale(1,1)"><path fill="none" stroke="#000000" d="M 248 332 C 248 316.5360256 316.0527104 304 400 304 C 483.9472896 304 552 316.5360256 552 332 C 552 347.4639744 483.9472896 360 400 360 C 316.0527104 360 248 347.4639744 248 332 Z" stroke-miterlimit="10"/></g><g transform="translate(-14,-22) scale(1,1)"><g><path fill="none" stroke="none"/><text fill="#000000" stroke="none" font-family="Arial" font-size="13px" font-style="normal" font-weight="bold" text-decoration="none" x="314.85888671875" y="339">View Subscribed Material List</text></g></g><g transform="translate(-14,-22) scale(1,1)"><path fill="#C0C0C0" stroke="none" d="M 975 122.5 C 975 111.7304464 1031.6359728 103 1101.5 103 C 1171.3640272 103 1228 111.7304464 1228 122.5 C 1228 133.2695536 1171.3640272 142 1101.5 142 C 1031.6359728 142 975 133.2695536 975 122.5 Z" opacity="0.2"/></g><g transform="translate(-14,-22) scale(1,1)"><path fill="#ffffff" stroke="none" d="M 968 115.5 C 968 104.7304464 1024.6359728 96 1094.5 96 C 1164.3640272 96 1221 104.7304464 1221 115.5 C 1221 126.2695536 1164.3640272 135 1094.5 135 C 1024.6359728 135 968 126.2695536 968 115.5 Z"/></g><g transform="translate(-14,-22) scale(1,1)"><path fill="none" stroke="#000000" d="M 968 115.5 C 968 104.7304464 1024.6359728 96 1094.5 96 C 1164.3640272 96 1221 104.7304464 1221 115.5 C 1221 126.2695536 1164.3640272 135 1094.5 135 C 1024.6359728 135 968 126.2695536 968 115.5 Z" stroke-miterlimit="10"/></g><g transform="translate(-14,-22) scale(1,1)"><g><path fill="none" stroke="none"/><text fill="#000000" stroke="none" font-family="Arial" font-size="13px" font-style="normal" font-weight="bold" text-decoration="none" x="1015.005126953125" y="122.5">Verify and Manage Account</text></g></g><g transform="translate(-14,-22) scale(1,1)"><path fill="#C0C0C0" stroke="none" d="M 791 282.5 C 791 271.7304464 857.4857072 263 939.5 263 C 1021.5142928 263 1088 271.7304464 1088 282.5 C 1088 293.2695536 1021.5142928 302 939.5 302 C 857.4857072 302 791 293.2695536 791 282.5 Z" opacity="0.2"/></g><g transform="translate(-14,-22) scale(1,1)"><path fill="#ffffff" stroke="none" d="M 784 275.5 C 784 264.7304464 850.4857072 256 932.5 256 C 1014.5142928 256 1081 264.7304464 1081 275.5 C 1081 286.2695536 1014.5142928 295 932.5 295 C 850.4857072 295 784 286.2695536 784 275.5 Z"/></g><g transform="translate(-14,-22) scale(1,1)"><path fill="none" stroke="#000000" d="M 784 275.5 C 784 264.7304464 850.4857072 256 932.5 256 C 1014.5142928 256 1081 264.7304464 1081 275.5 C 1081 286.2695536 1014.5142928 295 932.5 295 C 850.4857072 295 784 286.2695536 784 275.5 Z" stroke-miterlimit="10"/></g><g transform="translate(-14,-22) scale(1,1)"><g><path fill="none" stroke="none"/><text fill="#000000" stroke="none" font-family="Arial" font-size="13px" font-style="normal" font-weight="bold" text-decoration="none" x="838.945068359375" y="282.5">Fetch User-Specific Material List</text></g></g><g transform="translate(-14,-22) scale(1,1)"><path fill="none" stroke="#000000" d="M 350 98 L 967 112" stroke-miterlimit="10"/></g><g transform="translate(-14,-22) scale(1,1)"><path fill="none" stroke="#000000" d="M 956.744449068428 115.97789832574115 L 967 112 L 956.9354315104792 107.56102927248365" stroke-miterlimit="10"/></g><g transform="translate(-14,-22) scale(1,1)"><g><path fill="none" stroke="none"/><text fill="#000000" stroke="none" font-family="Arial" font-size="13px" font-style="normal" font-weight="normal" text-decoration="none" x="703.5" y="100.5">+uses</text></g></g><g transform="translate(-14,-22) scale(1,1)"><path fill="none" stroke="#000000" d="M 352 143 L 967 120" stroke-miterlimit="10"/></g><g transform="translate(-14,-22) scale(1,1)"><path fill="none" stroke="#000000" d="M 957.0017437910211 124.58637904883746 L 967 120 L 956.6871055080657 116.1732249611154" stroke-miterlimit="10"/></g><g transform="translate(-14,-22) scale(1,1)"><g><path fill="none" stroke="none"/><text fill="#000000" stroke="none" font-family="Arial" font-size="13px" font-style="normal" font-weight="normal" text-decoration="none" x="703.5" y="124.5">+uses</text></g></g><g transform="translate(-14,-22) scale(1,1)"><path fill="#C0C0C0" stroke="none" d="M 839 371 C 839 359.954304 905.037992 351 986.5 351 C 1067.962008 351 1134 359.954304 1134 371 C 1134 382.045696 1067.962008 391 986.5 391 C 905.037992 391 839 382.045696 839 371 Z" opacity="0.2"/></g><g transform="translate(-14,-22) scale(1,1)"><path fill="#ffffff" stroke="none" d="M 832 364 C 832 352.954304 898.037992 344 979.5 344 C 1060.962008 344 1127 352.954304 1127 364 C 1127 375.045696 1060.962008 384 979.5 384 C 898.037992 384 832 375.045696 832 364 Z"/></g><g transform="translate(-14,-22) scale(1,1)"><path fill="none" stroke="#000000" d="M 832 364 C 832 352.954304 898.037992 344 979.5 344 C 1060.962008 344 1127 352.954304 1127 364 C 1127 375.045696 1060.962008 384 979.5 384 C 898.037992 384 832 375.045696 832 364 Z" stroke-miterlimit="10"/></g><g transform="translate(-14,-22) scale(1,1)"><g><path fill="none" stroke="none"/><text fill="#000000" stroke="none" font-family="Arial" font-size="13px" font-style="normal" font-weight="bold" text-decoration="none" x="886.649658203125" y="371">Fetch Specific Learning Material</text></g></g><g transform="translate(-14,-22) scale(1,1)"><path fill="none" stroke="#000000" d="M 968 343 L 943 296" stroke-miterlimit="10" stroke-dasharray="3"/></g><g transform="translate(-14,-22) scale(1,1)"><path fill="none" stroke="#000000" d="M 951.4889909519318 302.9955008839983 L 943 296 L 944.0560569546705 306.9491891804139" stroke-miterlimit="10"/></g><g transform="translate(-14,-22) scale(1,1)"><g><path fill="none" stroke="none"/><text fill="#000000" stroke="none" font-family="Arial" font-size="13px" font-style="normal" font-weight="normal" text-decoration="none" x="863.483154296875" y="316.5">+list feature</text></g></g><g transform="translate(-14,-22) scale(1,1)"><g><path fill="none" stroke="none"/><text fill="#000000" stroke="none" font-family="Arial" font-size="13px" font-style="normal" font-weight="normal" text-decoration="none" x="879.5" y="332.5">«extend»</text></g></g><g transform="translate(-14,-22) scale(1,1)"><path fill="none" stroke="#000000" d="M 552 224 L 783 255" stroke-miterlimit="10"/></g><g transform="translate(-14,-22) scale(1,1)"><path fill="none" stroke="#000000" d="M 772.3677247743778 257.82041194271704 L 783 255 L 773.4875136780861 249.4761784989556" stroke-miterlimit="10"/></g><g transform="translate(-14,-22) scale(1,1)"><g><path fill="none" stroke="none"/><text fill="#000000" stroke="none" font-family="Arial" font-size="13px" font-style="normal" font-weight="normal" text-decoration="none" x="705.66455078125" y="236.5">+uses</text></g></g><g transform="translate(-14,-22) scale(1,1)"><path fill="none" stroke="#000000" d="M 553 270 L 783 273" stroke-miterlimit="10"/></g><g transform="translate(-14,-22) scale(1,1)"><path fill="none" stroke="#000000" d="M 772.7832874486052 277.0766143602468 L 783 273 L 772.893091615062 268.65829493188795" stroke-miterlimit="10"/></g><g transform="translate(-14,-22) scale(1,1)"><g><path fill="none" stroke="none"/><text fill="#000000" stroke="none" font-family="Arial" font-size="13px" font-style="normal" font-weight="normal" text-decoration="none" x="706.75" y="268.5">+uses</text></g></g><g transform="translate(-14,-22) scale(1,1)"><path fill="none" stroke="#000000" d="M 553 316 L 783 291" stroke-miterlimit="10"/></g><g transform="translate(-14,-22) scale(1,1)"><path fill="none" stroke="#000000" d="M 773.3517101004629 296.28303908886653 L 783 291 L 772.4419560201726 287.91330155019483" stroke-miterlimit="10"/></g><g transform="translate(-14,-22) scale(1,1)"><g><path fill="none" stroke="none"/><text fill="#000000" stroke="none" font-family="Arial" font-size="13px" font-style="normal" font-weight="normal" text-decoration="none" x="703.5" y="292.5">+uses</text></g></g><g transform="translate(-14,-22) scale(1,1)"><path fill="#C0C0C0" stroke="none" d="M 287 478.5 C 287 465.5213072 354.60499519999996 455 438 455 C 521.3950048 455 589 465.5213072 589 478.5 C 589 491.4786928 521.3950048 502 438 502 C 354.60499519999996 502 287 491.4786928 287 478.5 Z" opacity="0.2"/></g><g transform="translate(-14,-22) scale(1,1)"><path fill="#ffffff" stroke="none" d="M 280 471.5 C 280 458.5213072 347.60499519999996 448 431 448 C 514.3950048 448 582 458.5213072 582 471.5 C 582 484.4786928 514.3950048 495 431 495 C 347.60499519999996 495 280 484.4786928 280 471.5 Z"/></g><g transform="translate(-14,-22) scale(1,1)"><path fill="none" stroke="#000000" d="M 280 471.5 C 280 458.5213072 347.60499519999996 448 431 448 C 514.3950048 448 582 458.5213072 582 471.5 C 582 484.4786928 514.3950048 495 431 495 C 347.60499519999996 495 280 484.4786928 280 471.5 Z" stroke-miterlimit="10"/></g><g transform="translate(-14,-22) scale(1,1)"><g><path fill="none" stroke="none"/><text fill="#000000" stroke="none" font-family="Arial" font-size="13px" font-style="normal" font-weight="bold" text-decoration="none" x="335.013916015625" y="478.5">View a Specific Learning Material</text></g></g><g transform="translate(-14,-22) scale(1,1)"><path fill="#C0C0C0" stroke="none" d="M 775 559 C 775 545.7451648 916.0302879999999 535 1090 535 C 1263.969712 535 1405 545.7451648 1405 559 C 1405 572.2548352 1263.969712 583 1090 583 C 916.0302879999999 583 775 572.2548352 775 559 Z" opacity="0.2"/></g><g transform="translate(-14,-22) scale(1,1)"><path fill="#ffffff" stroke="none" d="M 768 552 C 768 538.7451648 909.0302879999999 528 1083 528 C 1256.969712 528 1398 538.7451648 1398 552 C 1398 565.2548352 1256.969712 576 1083 576 C 909.0302879999999 576 768 565.2548352 768 552 Z"/></g><g transform="translate(-14,-22) scale(1,1)"><path fill="none" stroke="#000000" d="M 768 552 C 768 538.7451648 909.0302879999999 528 1083 528 C 1256.969712 528 1398 538.7451648 1398 552 C 1398 565.2548352 1256.969712 576 1083 576 C 909.0302879999999 576 768 565.2548352 768 552 Z" stroke-miterlimit="10"/></g><g transform="translate(-14,-22) scale(1,1)"><g><path fill="none" stroke="none"/><text fill="#000000" stroke="none" font-family="Arial" font-size="13px" font-style="normal" font-weight="bold" text-decoration="none" x="878.28173828125" y="559">Fetch and Update User-Specific Material with Notes and View Histories</text></g></g><g transform="translate(-14,-22) scale(1,1)"><path fill="none" stroke="#000000" d="M 1073 136 L 952 255" stroke-miterlimit="10"/></g><g transform="translate(-14,-22) scale(1,1)"><path fill="none" stroke="#000000" d="M 956.2940576165284 244.87275609131814 L 952 255 L 962.1974001020121 250.87531441689396" stroke-miterlimit="10"/></g><g transform="translate(-14,-22) scale(1,1)"><g><path fill="none" stroke="none"/><text fill="#000000" stroke="none" font-family="Arial" font-size="13px" font-style="normal" font-weight="normal" text-decoration="none" x="1014.5" y="211.5">+supports</text></g></g><g transform="translate(-14,-22) scale(1,1)"><path fill="none" stroke="#000000" d="M 1107 136 L 1216 312 L 1097 527" stroke-miterlimit="10"/></g><g transform="translate(-14,-22) scale(1,1)"><path fill="none" stroke="#000000" d="M 1098.2383714569175 516.0699297287396 L 1097 527 L 1105.604387662468 520.1469340471605" stroke-miterlimit="10"/></g><g transform="translate(-14,-22) scale(1,1)"><g><path fill="none" stroke="none"/><text fill="#000000" stroke="none" font-family="Arial" font-size="13px" font-style="normal" font-weight="normal" text-decoration="none" x="1167.5" y="219.5">+supports</text></g></g><g transform="translate(-14,-22) scale(1,1)"><path fill="none" stroke="#000000" d="M 991 385 L 1069 527" stroke-miterlimit="10" stroke-dasharray="3"/></g><g transform="translate(-14,-22) scale(1,1)"><path fill="none" stroke="#000000" d="M 1060.4176900627021 520.1193055481182 L 1069 527 L 1067.7967761512903 516.0660047388936" stroke-miterlimit="10"/></g><g transform="translate(-14,-22) scale(1,1)"><g><path fill="none" stroke="none"/><text fill="#000000" stroke="none" font-family="Arial" font-size="13px" font-style="normal" font-weight="normal" text-decoration="none" x="881.5" y="455.5">+user-specific contents</text></g></g><g transform="translate(-14,-22) scale(1,1)"><g><path fill="none" stroke="none"/><text fill="#000000" stroke="none" font-family="Arial" font-size="13px" font-style="normal" font-weight="normal" text-decoration="none" x="1029.5" y="447.5">«extend»</text></g></g><g transform="translate(-14,-22) scale(1,1)"><path fill="#C0C0C0" stroke="none" d="M 247 534.5 C 247 521.5213072 327.8125936 511 427.5 511 C 527.1874064 511 608 521.5213072 608 534.5 C 608 547.4786928 527.1874064 558 427.5 558 C 327.8125936 558 247 547.4786928 247 534.5 Z" opacity="0.2"/></g><g transform="translate(-14,-22) scale(1,1)"><path fill="#ffffff" stroke="none" d="M 240 527.5 C 240 514.5213072 320.8125936 504 420.5 504 C 520.1874064 504 601 514.5213072 601 527.5 C 601 540.4786928 520.1874064 551 420.5 551 C 320.8125936 551 240 540.4786928 240 527.5 Z"/></g><g transform="translate(-14,-22) scale(1,1)"><path fill="none" stroke="#000000" d="M 240 527.5 C 240 514.5213072 320.8125936 504 420.5 504 C 520.1874064 504 601 514.5213072 601 527.5 C 601 540.4786928 520.1874064 551 420.5 551 C 320.8125936 551 240 540.4786928 240 527.5 Z" stroke-miterlimit="10"/></g><g transform="translate(-14,-22) scale(1,1)"><g><path fill="none" stroke="none"/><text fill="#000000" stroke="none" font-family="Arial" font-size="13px" font-style="normal" font-weight="bold" text-decoration="none" x="304.642578125" y="534.5">View a Learning Material in Focus Mode</text></g></g><g transform="translate(-14,-22) scale(1,1)"><path fill="none" stroke="#000000" d="M 583 490 L 882 527" stroke-miterlimit="10"/></g><g transform="translate(-14,-22) scale(1,1)"><path fill="none" stroke="#000000" d="M 871.3972863228419 529.929584045595 L 882 527 L 872.4312205152061 521.5742780045982" stroke-miterlimit="10"/></g><g transform="translate(-14,-22) scale(1,1)"><g><path fill="none" stroke="none"/><text fill="#000000" stroke="none" font-family="Arial" font-size="13px" font-style="normal" font-weight="normal" text-decoration="none" x="703.5" y="498.5">+uses</text></g></g><g transform="translate(-14,-22) scale(1,1)"><path fill="none" stroke="#000000" d="M 602 534 L 767 540" stroke-miterlimit="10"/></g><g transform="translate(-14,-22) scale(1,1)"><path fill="none" stroke="#000000" d="M 756.6910653423201 543.8374296376205 L 767 540 L 756.9970098776579 535.4239549158333" stroke-miterlimit="10"/></g><g transform="translate(-14,-22) scale(1,1)"><g><path fill="none" stroke="none"/><text fill="#000000" stroke="none" font-family="Arial" font-size="13px" font-style="normal" font-weight="normal" text-decoration="none" x="703.5" y="579.5">+uses</text></g></g><g transform="translate(-14,-22) scale(1,1)"><path fill="#C0C0C0" stroke="none" d="M 311 399 C 311 385.7451648 353.9806592 375 407 375 C 460.0193408 375 503 385.7451648 503 399 C 503 412.2548352 460.0193408 423 407 423 C 353.9806592 423 311 412.2548352 311 399 Z" opacity="0.2"/></g><g transform="translate(-14,-22) scale(1,1)"><path fill="#ffffff" stroke="none" d="M 304 392 C 304 378.7451648 346.9806592 368 400 368 C 453.0193408 368 496 378.7451648 496 392 C 496 405.2548352 453.0193408 416 400 416 C 346.9806592 416 304 405.2548352 304 392 Z"/></g><g transform="translate(-14,-22) scale(1,1)"><path fill="none" stroke="#000000" d="M 304 392 C 304 378.7451648 346.9806592 368 400 368 C 453.0193408 368 496 378.7451648 496 392 C 496 405.2548352 453.0193408 416 400 416 C 346.9806592 416 304 405.2548352 304 392 Z" stroke-miterlimit="10"/></g><g transform="translate(-14,-22) scale(1,1)"><g><path fill="none" stroke="none"/><text fill="#000000" stroke="none" font-family="Arial" font-size="13px" font-style="normal" font-weight="bold" text-decoration="none" x="340.500244140625" y="399">View Accounts Page</text></g></g><g transform="translate(-14,-22) scale(1,1)"><path fill="none" stroke="#000000" d="M 497 371 L 837 296" stroke-miterlimit="10"/></g><g transform="translate(-14,-22) scale(1,1)"><path fill="none" stroke="#000000" d="M 827.9826771709212 302.299832457786 L 837 296 L 826.1691356281705 294.0784441306497" stroke-miterlimit="10"/></g><g transform="translate(-14,-22) scale(1,1)"><g><path fill="none" stroke="none"/><text fill="#000000" stroke="none" font-family="Arial" font-size="13px" font-style="normal" font-weight="normal" text-decoration="none" x="703.5" y="316.5">+uses</text></g></g><g transform="translate(-14,-22) scale(1,1)"><path fill="#C0C0C0" stroke="none" d="M 271 590.5 C 271 577.5213072 345.0968656 567 436.5 567 C 527.9031344 567 602 577.5213072 602 590.5 C 602 603.4786928 527.9031344 614 436.5 614 C 345.0968656 614 271 603.4786928 271 590.5 Z" opacity="0.2"/></g><g transform="translate(-14,-22) scale(1,1)"><path fill="#ffffff" stroke="none" d="M 264 583.5 C 264 570.5213072 338.0968656 560 429.5 560 C 520.9031344 560 595 570.5213072 595 583.5 C 595 596.4786928 520.9031344 607 429.5 607 C 338.0968656 607 264 596.4786928 264 583.5 Z"/></g><g transform="translate(-14,-22) scale(1,1)"><path fill="none" stroke="#000000" d="M 264 583.5 C 264 570.5213072 338.0968656 560 429.5 560 C 520.9031344 560 595 570.5213072 595 583.5 C 595 596.4786928 520.9031344 607 429.5 607 C 338.0968656 607 264 596.4786928 264 583.5 Z" stroke-miterlimit="10"/></g><g transform="translate(-14,-22) scale(1,1)"><g><path fill="none" stroke="none"/><text fill="#000000" stroke="none" font-family="Arial" font-size="13px" font-style="normal" font-weight="bold" text-decoration="none" x="324.71923828125" y="590.5">Take Notes during Learning Process</text></g></g><g transform="translate(-14,-22) scale(1,1)"><path fill="none" stroke="#000000" d="M 596 583 Q 896 584 937 577" stroke-miterlimit="10"/></g><g transform="translate(-14,-22) scale(1,1)"><path fill="none" stroke="#000000" d="M 927.6907281610397 582.8598172179976 L 937 577 L 926.2738342634025 574.560867246122" stroke-miterlimit="10"/></g><g transform="translate(-14,-22) scale(1,1)"><g><path fill="none" stroke="none"/><text fill="#000000" stroke="none" font-family="Arial" font-size="13px" font-style="normal" font-weight="normal" text-decoration="none" x="702.5" y="532.5">+uses</text></g></g><g transform="translate(-14,-22) scale(1,1)"><path fill="#C0C0C0" stroke="none" d="M 239 642.5 C 239 631.7304464 326.7521792 623 435 623 C 543.2478208 623 631 631.7304464 631 642.5 C 631 653.2695536 543.2478208 662 435 662 C 326.7521792 662 239 653.2695536 239 642.5 Z" opacity="0.2"/></g><g transform="translate(-14,-22) scale(1,1)"><path fill="#ffffff" stroke="none" d="M 232 635.5 C 232 624.7304464 319.7521792 616 428 616 C 536.2478208 616 624 624.7304464 624 635.5 C 624 646.2695536 536.2478208 655 428 655 C 319.7521792 655 232 646.2695536 232 635.5 Z"/></g><g transform="translate(-14,-22) scale(1,1)"><path fill="none" stroke="#000000" d="M 232 635.5 C 232 624.7304464 319.7521792 616 428 616 C 536.2478208 616 624 624.7304464 624 635.5 C 624 646.2695536 536.2478208 655 428 655 C 319.7521792 655 232 646.2695536 232 635.5 Z" stroke-miterlimit="10"/></g><g transform="translate(-14,-22) scale(1,1)"><g><path fill="none" stroke="none"/><text fill="#000000" stroke="none" font-family="Arial" font-size="13px" font-style="normal" font-weight="bold" text-decoration="none" x="302.39892578125" y="642.5">View Recommendations of Current Material</text></g></g><g transform="translate(-14,-22) scale(1,1)"><path fill="#C0C0C0" stroke="none" d="M 1535 638.5 C 1535 625.5213072 1636.1836352 615 1761 615 C 1885.8163648 615 1987 625.5213072 1987 638.5 C 1987 651.4786928 1885.8163648 662 1761 662 C 1636.1836352 662 1535 651.4786928 1535 638.5 Z" opacity="0.2"/></g><g transform="translate(-14,-22) scale(1,1)"><path fill="#ffffff" stroke="none" d="M 1528 631.5 C 1528 618.5213072 1629.1836352 608 1754 608 C 1878.8163648 608 1980 618.5213072 1980 631.5 C 1980 644.4786928 1878.8163648 655 1754 655 C 1629.1836352 655 1528 644.4786928 1528 631.5 Z"/></g><g transform="translate(-14,-22) scale(1,1)"><path fill="none" stroke="#000000" d="M 1528 631.5 C 1528 618.5213072 1629.1836352 608 1754 608 C 1878.8163648 608 1980 618.5213072 1980 631.5 C 1980 644.4786928 1878.8163648 655 1754 655 C 1629.1836352 655 1528 644.4786928 1528 631.5 Z" stroke-miterlimit="10"/></g><g transform="translate(-14,-22) scale(1,1)"><g><path fill="none" stroke="none"/><text fill="#000000" stroke="none" font-family="Arial" font-size="13px" font-style="normal" font-weight="bold" text-decoration="none" x="1609.12109375" y="638.5">Calculate Correlation Index between two materials</text></g></g><g transform="translate(-14,-22) scale(1,1)"><path fill="none" stroke="#000000" d="M 1527 620 Q 1440 616 1222 577" stroke-miterlimit="10" stroke-dasharray="3"/></g><g transform="translate(-14,-22) scale(1,1)"><path fill="none" stroke="#000000" d="M 1232.7451591627132 574.6459493276565 L 1222 577 L 1231.262540102554 582.9334097152124" stroke-miterlimit="10"/></g><g transform="translate(-14,-22) scale(1,1)"><g><path fill="none" stroke="none"/><text fill="#000000" stroke="none" font-family="Arial" font-size="13px" font-style="normal" font-weight="normal" text-decoration="none" x="1423.5" y="604.5">+dependant</text></g></g><g transform="translate(-14,-22) scale(1,1)"><path fill="none" stroke="#000000" d="M 625 641 Q 824 648 1016 577" stroke-miterlimit="10"/></g><g transform="translate(-14,-22) scale(1,1)"><path fill="none" stroke="#000000" d="M 1007.9281854478522 584.4730054085178 L 1016 577 L 1005.0081523934894 576.5765779939028" stroke-miterlimit="10"/></g><g transform="translate(-14,-22) scale(1,1)"><g><path fill="none" stroke="none"/><text fill="#000000" stroke="none" font-family="Arial" font-size="13px" font-style="normal" font-weight="normal" text-decoration="none" x="703.5" y="619.5">+uses</text></g></g><g transform="translate(-14,-22) scale(1,1)"><path fill="#C0C0C0" stroke="none" d="M 1551 258.5 C 1551 247.7304464 1619.9481408 239 1705 239 C 1790.0518592 239 1859 247.7304464 1859 258.5 C 1859 269.2695536 1790.0518592 278 1705 278 C 1619.9481408 278 1551 269.2695536 1551 258.5 Z" opacity="0.2"/></g><g transform="translate(-14,-22) scale(1,1)"><path fill="#ffffff" stroke="none" d="M 1544 251.5 C 1544 240.7304464 1612.9481408 232 1698 232 C 1783.0518592 232 1852 240.7304464 1852 251.5 C 1852 262.2695536 1783.0518592 271 1698 271 C 1612.9481408 271 1544 262.2695536 1544 251.5 Z"/></g><g transform="translate(-14,-22) scale(1,1)"><path fill="none" stroke="#000000" d="M 1544 251.5 C 1544 240.7304464 1612.9481408 232 1698 232 C 1783.0518592 232 1852 240.7304464 1852 251.5 C 1852 262.2695536 1783.0518592 271 1698 271 C 1612.9481408 271 1544 262.2695536 1544 251.5 Z" stroke-miterlimit="10"/></g><g transform="translate(-14,-22) scale(1,1)"><g><path fill="none" stroke="none"/><text fill="#000000" stroke="none" font-family="Arial" font-size="13px" font-style="normal" font-weight="bold" text-decoration="none" x="1600.090576171875" y="258.5">Crawl Open Education Resources</text></g></g><g transform="translate(-14,-22) scale(1,1)"><path fill="#C0C0C0" stroke="none" d="M 1567 474.5 C 1567 463.7304464 1646.9171632 455 1745.5 455 C 1844.0828368 455 1924 463.7304464 1924 474.5 C 1924 485.2695536 1844.0828368 494 1745.5 494 C 1646.9171632 494 1567 485.2695536 1567 474.5 Z" opacity="0.2"/></g><g transform="translate(-14,-22) scale(1,1)"><path fill="#ffffff" stroke="none" d="M 1560 467.5 C 1560 456.7304464 1639.9171632 448 1738.5 448 C 1837.0828368 448 1917 456.7304464 1917 467.5 C 1917 478.2695536 1837.0828368 487 1738.5 487 C 1639.9171632 487 1560 478.2695536 1560 467.5 Z"/></g><g transform="translate(-14,-22) scale(1,1)"><path fill="none" stroke="#000000" d="M 1560 467.5 C 1560 456.7304464 1639.9171632 448 1738.5 448 C 1837.0828368 448 1917 456.7304464 1917 467.5 C 1917 478.2695536 1837.0828368 487 1738.5 487 C 1639.9171632 487 1560 478.2695536 1560 467.5 Z" stroke-miterlimit="10"/></g><g transform="translate(-14,-22) scale(1,1)"><g><path fill="none" stroke="none"/><text fill="#000000" stroke="none" font-family="Arial" font-size="13px" font-style="normal" font-weight="bold" text-decoration="none" x="1625.051513671875" y="474.5">Build Knowledge Map Among Materials</text></g></g><g transform="translate(-14,-22) scale(1,1)"><path fill="none" stroke="#000000" d="M 1752 607 L 1740 488" stroke-miterlimit="10" stroke-dasharray="3"/></g><g transform="translate(-14,-22) scale(1,1)"><path fill="none" stroke="#000000" d="M 1745.2079132346769 497.6890474113855 L 1740 488 L 1736.8313596362425 498.5337418918999" stroke-miterlimit="10"/></g><g transform="translate(-14,-22) scale(1,1)"><g><path fill="none" stroke="none"/><text fill="#000000" stroke="none" font-family="Arial" font-size="13px" font-style="normal" font-weight="normal" text-decoration="none" x="1664.5" y="556.5">+dependant</text></g></g><g transform="translate(-14,-22) scale(1,1)"><path fill="none" stroke="#000000" d="M 1698 232 L 1698 211 L 1882 211 L 1882 251 L 1852 251" stroke-miterlimit="10"/></g><g transform="translate(-14,-22) scale(1,1)"><path fill="none" stroke="#000000" d="M 1862.162674857624 246.790482243984 L 1852 251 L 1862.162674857624 255.209517756016" stroke-miterlimit="10"/></g><g transform="translate(-14,-22) scale(1,1)"><g><path fill="none" stroke="none"/><text fill="#000000" stroke="none" font-family="Arial" font-size="13px" font-style="normal" font-weight="normal" text-decoration="none" x="1613.5" y="220.5">+repeatedly</text></g></g><g transform="translate(-14,-22) scale(1,1)"><path fill="#C0C0C0" stroke="none" d="M 1527 354.5 C 1527 343.7304464 1629.974496 335 1757 335 C 1884.025504 335 1987 343.7304464 1987 354.5 C 1987 365.2695536 1884.025504 374 1757 374 C 1629.974496 374 1527 365.2695536 1527 354.5 Z" opacity="0.2"/></g><g transform="translate(-14,-22) scale(1,1)"><path fill="#ffffff" stroke="none" d="M 1520 347.5 C 1520 336.7304464 1622.974496 328 1750 328 C 1877.025504 328 1980 336.7304464 1980 347.5 C 1980 358.2695536 1877.025504 367 1750 367 C 1622.974496 367 1520 358.2695536 1520 347.5 Z"/></g><g transform="translate(-14,-22) scale(1,1)"><path fill="none" stroke="#000000" d="M 1520 347.5 C 1520 336.7304464 1622.974496 328 1750 328 C 1877.025504 328 1980 336.7304464 1980 347.5 C 1980 358.2695536 1877.025504 367 1750 367 C 1622.974496 367 1520 358.2695536 1520 347.5 Z" stroke-miterlimit="10"/></g><g transform="translate(-14,-22) scale(1,1)"><g><path fill="none" stroke="none"/><text fill="#000000" stroke="none" font-family="Arial" font-size="13px" font-style="normal" font-weight="bold" text-decoration="none" x="1601.861572265625" y="354.5">Index Education Resources into Separate Materials</text></g></g><g transform="translate(-14,-22) scale(1,1)"><path fill="none" stroke="#000000" d="M 1128 361 L 1519 352" stroke-miterlimit="10"/></g><g transform="translate(-14,-22) scale(1,1)"><path fill="none" stroke="#000000" d="M 1508.9368848991544 356.44226456518885 L 1519 352 L 1508.7431476744616 348.02545847020104" stroke-miterlimit="10"/></g><g transform="translate(-14,-22) scale(1,1)"><g><path fill="none" stroke="none"/><text fill="#000000" stroke="none" font-family="Arial" font-size="13px" font-style="normal" font-weight="normal" text-decoration="none" x="1431.5" y="348.5">+uses</text></g></g><g transform="translate(-14,-22) scale(1,1)"><path fill="none" stroke="#000000" d="M 1709 272 L 1739 327" stroke-miterlimit="10"/></g><g transform="translate(-14,-22) scale(1,1)"><path fill="none" stroke="#000000" d="M 1730.4380644889018 320.0939692801294 L 1739 327 L 1737.8290984931236 316.0624961869175" stroke-miterlimit="10"/></g><g transform="translate(-14,-22) scale(1,1)"><g><path fill="none" stroke="none"/><text fill="#000000" stroke="none" font-family="Arial" font-size="13px" font-style="normal" font-weight="normal" text-decoration="none" x="1726.5" y="300.5">+supports</text></g></g><g transform="translate(-14,-22) scale(1,1)"><path fill="#C0C0C0" stroke="none" d="M 191 695 C 191 681.7451648 301.3617968 671 437.5 671 C 573.6382032 671 684 681.7451648 684 695 C 684 708.2548352 573.6382032 719 437.5 719 C 301.3617968 719 191 708.2548352 191 695 Z" opacity="0.2"/></g><g transform="translate(-14,-22) scale(1,1)"><path fill="#ffffff" stroke="none" d="M 184 688 C 184 674.7451648 294.3617968 664 430.5 664 C 566.6382032 664 677 674.7451648 677 688 C 677 701.2548352 566.6382032 712 430.5 712 C 294.3617968 712 184 701.2548352 184 688 Z"/></g><g transform="translate(-14,-22) scale(1,1)"><path fill="none" stroke="#000000" d="M 184 688 C 184 674.7451648 294.3617968 664 430.5 664 C 566.6382032 664 677 674.7451648 677 688 C 677 701.2548352 566.6382032 712 430.5 712 C 294.3617968 712 184 701.2548352 184 688 Z" stroke-miterlimit="10"/></g><g transform="translate(-14,-22) scale(1,1)"><g><path fill="none" stroke="none"/><text fill="#000000" stroke="none" font-family="Arial" font-size="13px" font-style="normal" font-weight="bold" text-decoration="none" x="271.284912109375" y="695">View Knowledge Map in the Current Section of Material</text></g></g><g transform="translate(-14,-22) scale(1,1)"><path fill="none" stroke="#000000" d="M 678 688 Q 856 688 1041 577" stroke-miterlimit="10"/></g><g transform="translate(-14,-22) scale(1,1)"><path fill="none" stroke="#000000" d="M 1034.4513572211376 585.8382847744828 L 1041 577 L 1030.1197991854035 578.6190213815926" stroke-miterlimit="10"/></g><g transform="translate(-14,-22) scale(1,1)"><g><path fill="none" stroke="none"/><text fill="#000000" stroke="none" font-family="Arial" font-size="13px" font-style="normal" font-weight="normal" text-decoration="none" x="702.5" y="675.5">+uses</text></g></g><g transform="translate(-14,-22) scale(1,1)"><path fill="none" stroke="#000000" d="M 1740 447 L 1748 368" stroke-miterlimit="10"/></g><g transform="translate(-14,-22) scale(1,1)"><path fill="none" stroke="#000000" d="M 1751.164203422302 378.5350755432646 L 1748 368 L 1742.7880063400085 377.6868530539184" stroke-miterlimit="10"/></g><g transform="translate(-14,-22) scale(1,1)"><g><path fill="none" stroke="none"/><text fill="#000000" stroke="none" font-family="Arial" font-size="13px" font-style="normal" font-weight="normal" text-decoration="none" x="1750.5" y="419.5">+supports</text></g></g><g transform="translate(-14,-22) scale(1,1)"><path fill="none" stroke="#000000" d="M 1276 527 L 1576 488" stroke-miterlimit="10"/></g><g transform="translate(-14,-22) scale(1,1)"><path fill="none" stroke="#000000" d="M 1566.464797340982 493.4845154983328 L 1576 488 L 1565.3794554394265 485.1357316402141" stroke-miterlimit="10"/></g><g transform="translate(-14,-22) scale(1,1)"><g><path fill="none" stroke="none"/><text fill="#000000" stroke="none" font-family="Arial" font-size="13px" font-style="normal" font-weight="normal" text-decoration="none" x="1431.5" y="498.5">+uses</text></g></g><g transform="translate(-14,-22) scale(1,1)"><path fill="none" stroke="#000000" d="M 247 112 Q 112 152 80 351" stroke-miterlimit="10"/></g><g transform="translate(-14,-22) scale(1,1)"><path fill="none" stroke="#000000" d="M 257 163 Q 152 208 90 351" stroke-miterlimit="10"/></g><g transform="translate(-14,-22) scale(1,1)"><path fill="none" stroke="#000000" d="M 283 233 Q 160 264 100 351" stroke-miterlimit="10"/></g><g transform="translate(-14,-22) scale(1,1)"><path fill="none" stroke="#000000" d="M 252 297 Q 176 312 116 358" stroke-miterlimit="10"/></g><g transform="translate(-14,-22) scale(1,1)"><path fill="none" stroke="#000000" d="M 116 373 Q 168 352 247 345" stroke-miterlimit="10"/></g><g transform="translate(-14,-22) scale(1,1)"><path fill="none" stroke="#000000" d="M 116 386 Q 203 376 303 384" stroke-miterlimit="10"/></g><g transform="translate(-14,-22) scale(1,1)"><path fill="none" stroke="#000000" d="M 116 418 Q 176 456 279 462" stroke-miterlimit="10"/></g><g transform="translate(-14,-22) scale(1,1)"><path fill="none" stroke="#000000" d="M 101 432 Q 144 496 239 507" stroke-miterlimit="10"/></g><g transform="translate(-14,-22) scale(1,1)"><path fill="none" stroke="#000000" d="M 78 432 Q 96 568 263 576" stroke-miterlimit="10"/></g><g transform="translate(-14,-22) scale(1,1)"><path fill="none" stroke="#000000" d="M 76 432 Q 88 608 231 619" stroke-miterlimit="10"/></g><g transform="translate(-14,-22) scale(1,1)"><path fill="none" stroke="#000000" d="M 67 432 Q 24 704 183 698" stroke-miterlimit="10"/></g></g></svg>